<?xml version="1.0" standalone="no"?>
<!DOCTYPE svg PUBLIC "-//W3C//DTD SVG 20010904//EN"
 "http://www.w3.org/TR/2001/REC-SVG-20010904/DTD/svg10.dtd">
<svg version="1.0" xmlns="http://www.w3.org/2000/svg"
 width="443.000000pt" height="157.000000pt" viewBox="0 0 443.000000 157.000000"
 preserveAspectRatio="xMidYMid meet">

<g transform="translate(0.000000,157.000000) scale(0.100000,-0.100000)"
fill="#000000" stroke="none">
<path d="M2806 1501 c-182 -81 -176 -71 -176 -287 0 -141 -3 -174 -14 -174 -7
0 -44 -16 -82 -35 -43 -21 -77 -32 -91 -29 l-22 6 20 31 c35 58 27 90 -59 222
-117 180 -128 182 -352 60 -86 -47 -167 -96 -179 -109 -13 -13 -25 -43 -28
-65 -5 -37 0 -50 41 -117 l47 -76 -63 8 c-86 11 -122 9 -152 -12 -15 -9 -29
-14 -33 -11 -3 4 -12 100 -20 213 -7 114 -19 219 -26 232 -19 39 -63 67 -105
66 -34 0 -286 -98 -339 -132 -31 -19 -50 -66 -64 -159 l-13 -83 -41 0 c-22 0
-55 -4 -73 -9 l-33 -10 7 50 c6 43 2 58 -25 113 -60 122 -154 177 -317 184
-118 5 -202 -9 -408 -70 -221 -66 -234 -91 -156 -299 56 -150 72 -177 118
-199 17 -8 35 -26 40 -40 5 -14 49 -137 97 -275 49 -137 95 -260 102 -272 20
-31 79 -56 115 -49 16 3 65 31 108 61 43 30 81 55 85 55 4 0 21 -11 37 -25
108 -91 270 -107 414 -41 l54 25 0 -47 c0 -60 29 -108 77 -128 28 -12 69 -15
190 -12 l155 3 34 37 c20 22 34 48 34 63 0 14 2 25 5 25 2 0 55 -36 116 -80
121 -86 157 -97 218 -65 31 15 61 69 61 107 0 23 5 25 90 36 50 7 120 23 156
36 65 24 66 24 98 5 43 -25 145 -50 203 -50 27 1 101 1 165 1 64 1 140 5 170
10 33 5 80 4 125 -2 51 -8 93 -8 149 0 76 10 78 10 96 -14 30 -38 78 -46 250
-42 l157 3 40 39 40 39 22 -27 c38 -48 73 -56 240 -56 168 0 202 9 232 59 9
16 17 47 17 70 0 37 -12 56 -110 186 -68 89 -108 150 -104 158 4 6 51 68 105
137 162 210 166 217 133 286 -29 61 -55 68 -250 61 -178 -5 -220 -15 -244 -55
-35 -60 -37 -60 -83 -7 -43 48 -45 49 -118 56 -41 4 -129 8 -196 8 -121 1
-123 1 -155 -28 -25 -22 -48 -31 -93 -36 -33 -4 -79 -13 -101 -20 l-41 -12 -7
66 c-3 36 -6 143 -6 237 0 161 -1 173 -23 205 -51 75 -93 75 -261 0z m185
-374 c3 -172 7 -313 7 -315 1 -2 17 8 35 22 113 86 281 110 413 59 14 -5 10 5
-15 36 -23 29 -30 46 -23 53 6 6 59 7 158 1 l149 -8 66 -87 67 -88 67 90 67
90 47 0 c27 0 96 3 154 7 94 5 107 4 107 -10 0 -8 -64 -98 -141 -198 -131
-168 -141 -184 -129 -203 7 -12 64 -87 127 -168 62 -81 113 -152 113 -158 0
-6 -53 -10 -150 -10 l-150 0 -52 70 c-29 38 -56 70 -60 70 -4 0 -31 -31 -60
-70 l-53 -69 -147 -1 c-81 0 -149 4 -152 8 -2 4 54 84 125 176 84 110 126 173
120 180 -4 6 -38 50 -75 98 -37 48 -70 90 -75 92 -4 3 -62 -60 -129 -140 -123
-145 -147 -196 -39 -83 47 50 60 59 72 49 31 -26 125 -148 125 -163 0 -47
-118 -125 -231 -152 -82 -19 -202 -19 -265 0 -42 13 -51 13 -59 1 -13 -17
-265 -35 -265 -19 0 6 -31 8 -78 5 -65 -4 -87 -1 -129 18 -28 12 -61 32 -73
45 l-21 23 -57 -29 c-89 -45 -171 -62 -284 -57 l-98 4 0 -83 c0 -46 -4 -83 -9
-83 -4 0 -89 58 -187 128 -98 70 -185 132 -193 136 -12 8 -13 -9 -7 -107 l7
-117 -140 0 c-159 0 -151 -5 -151 93 0 34 -3 99 -7 144 l-6 82 -27 -38 c-68
-93 -168 -152 -272 -159 -121 -8 -204 39 -259 148 -31 62 -38 196 -14 269 45
136 229 253 370 235 59 -7 130 -36 164 -67 l24 -22 -7 70 c-3 39 -6 84 -6 102
0 31 -1 32 -38 30 -42 -2 -42 -2 -22 99 l11 51 134 57 c139 58 151 61 158 49
3 -5 13 -137 23 -294 l18 -285 98 53 98 54 94 -12 93 -12 35 26 c73 56 124 72
239 72 103 0 108 -1 179 -37 l73 -38 39 32 c50 39 142 77 188 78 l35 0 0 202
0 202 115 52 c73 33 119 48 125 42 6 -5 12 -134 16 -321z m-2268 128 c45 -19
94 -60 112 -96 41 -79 -4 -174 -163 -340 l-103 -107 47 -162 c25 -89 44 -163
42 -165 -19 -19 -145 -105 -154 -105 -7 0 -19 19 -27 42 -91 260 -207 587
-212 601 -7 17 -9 17 -30 -3 -17 -16 -24 -18 -33 -8 -11 14 -92 229 -92 246 0
6 46 25 103 42 56 17 116 35 132 40 127 39 304 46 378 15z m1571 -76 c37 -56
64 -105 59 -109 -8 -9 -312 -70 -345 -70 -26 0 -90 101 -75 117 12 12 277 162
288 163 3 0 36 -46 73 -101z"/>
<path d="M2665 772 c-35 -37 -45 -67 -33 -103 10 -28 55 -59 87 -59 18 0 21 6
21 38 0 26 -6 41 -19 49 -14 9 -21 26 -23 60 l-3 47 -30 -32z"/>
<path  d="M1007 762 c-15 -15 -30 -42 -33 -59 -15 -74 111 -128 163 -70 51 55
56 94 8 66 -23 -14 -44 -19 -60 -15 -29 7 -49 48 -40 83 7 31 -6 29 -38 -5z"/>
<path  d="M2113 720 c-41 -17 -81 -109 -57 -133 4 -3 27 20 53 51 80 98 77 92
50 91 -13 0 -34 -4 -46 -9z"/>
<path d="M3179 719 c-34 -13 -62 -65 -57 -109 l3 -35 63 78 c56 68 61 77 40
76 -13 0 -35 -5 -49 -10z"/>
<path  d="M2304 618 c-90 -106 -95 -116 -54 -92 18 11 47 38 64 62 16 23 35 42
42 42 12 0 30 57 22 66 -3 2 -36 -33 -74 -78z"/>
<path  d="M1795 619 c-27 -22 -54 -44 -58 -48 -6 -6 92 -91 106 -91 2 0 4 24 4
53 -1 28 3 69 7 90 4 20 3 37 -1 37 -4 -1 -30 -19 -58 -41z"/>
<path  d="M523 1019 c-18 -5 -34 -13 -36 -17 -2 -4 3 -31 12 -59 l16 -53 45 55
c25 30 45 60 45 67 0 16 -40 20 -82 7z"/>
</g>
</svg>
